<svg width="17" height="17" viewBox="0 0 17 17" fill="none" xmlns="http://www.w3.org/2000/svg">
<path d="M8.33335 0C3.72917 0 0 3.72917 0 8.33333C0 12.0208 2.38542 15.1354 5.69792 16.2396C6.11458 16.3125 6.27083 16.0625 6.27083 15.8438C6.27083 15.6458 6.26042 14.9896 6.26042 14.2917C4.16667 14.6771 3.625 13.7812 3.45833 13.3125C3.36458 13.0729 2.95833 12.3333 2.60417 12.1354C2.3125 11.9792 1.89583 11.5937 2.59375 11.5833C3.25 11.5729 3.71875 12.1875 3.875 12.4375C4.625 13.6979 5.82292 13.3437 6.30208 13.125C6.375 12.5833 6.59375 12.2188 6.83335 12.0104C4.97917 11.8021 3.04167 11.0833 3.04167 7.89583C3.04167 6.98958 3.36458 6.23958 3.89583 5.65625C3.8125 5.44792 3.52083 4.59375 3.97917 3.44792C3.97917 3.44792 4.67708 3.22917 6.27083 4.30208C6.93752 4.11458 7.64585 4.02083 8.35418 4.02083C9.06252 4.02083 9.77085 4.11458 10.4375 4.30208C12.0313 3.21875 12.7292 3.44792 12.7292 3.44792C13.1875 4.59375 12.8958 5.44792 12.8125 5.65625C13.3438 6.23958 13.6667 6.97917 13.6667 7.89583C13.6667 11.0938 11.7188 11.8021 9.8646 12.0104C10.1667 12.2708 10.4271 12.7708 10.4271 13.5521C10.4271 14.6667 10.4167 15.5625 10.4167 15.8438C10.4167 16.0625 10.5729 16.3229 10.9896 16.2396C14.3817 15.0944 16.6658 11.9136 16.6667 8.33333C16.6667 3.72917 12.9375 0 8.33335 0Z" fill="#4338CA"/>
</svg>
