<svg width="17" height="17" viewBox="0 0 17 17" fill="none" xmlns="http://www.w3.org/2000/svg">
<path d="M9.18927 0C10.1271 0.00155 10.6024 0.00650834 11.013 0.0187333L11.1748 0.024025C11.3616 0.0306667 11.5459 0.0390002 11.7682 0.0494168C12.6549 0.0903835 13.2599 0.230667 13.7911 0.436917C14.3404 0.648717 14.8043 0.934834 15.2674 1.39803C15.7299 1.86122 16.0161 2.3265 16.2286 2.87442C16.4341 3.40497 16.5744 4.01053 16.6161 4.89733C16.626 5.11955 16.634 5.30388 16.6406 5.49076L16.6459 5.65249C16.658 6.06312 16.6636 6.53843 16.6653 7.47627L16.666 8.09768C16.6661 8.1736 16.6661 8.25193 16.6661 8.33277L16.666 8.56785L16.6655 9.18927C16.6639 10.1271 16.659 10.6024 16.6468 11.013L16.6414 11.1748C16.6348 11.3616 16.6265 11.5459 16.6161 11.7682C16.5751 12.6549 16.4341 13.2599 16.2286 13.7911C16.0168 14.3404 15.7299 14.8043 15.2674 15.2674C14.8043 15.7299 14.3383 16.0161 13.7911 16.2286C13.2599 16.4341 12.6549 16.5744 11.7682 16.6161C11.5459 16.626 11.3616 16.634 11.1748 16.6406L11.013 16.6459C10.6024 16.658 10.1271 16.6636 9.18927 16.6653L8.56785 16.666C8.49193 16.6661 8.4136 16.6661 8.33277 16.6661L8.09768 16.666L7.47627 16.6655C6.53843 16.6639 6.06312 16.659 5.65249 16.6468L5.49076 16.6414C5.30388 16.6348 5.11955 16.6265 4.89733 16.6161C4.01053 16.5751 3.40636 16.4341 2.87442 16.2286C2.3258 16.0168 1.86122 15.7299 1.39803 15.2674C0.934834 14.8043 0.649417 14.3383 0.436917 13.7911C0.230667 13.2599 0.0910835 12.6549 0.0494168 11.7682C0.0395168 11.5459 0.0314417 11.3616 0.0249 11.1748L0.0196584 11.013C0.00746674 10.6024 0.00190848 10.1271 0.00010848 9.18927L0 7.47627C0.00155 6.53843 0.00650834 6.06312 0.0187333 5.65249L0.024025 5.49076C0.0306667 5.30388 0.0390002 5.11955 0.0494168 4.89733C0.0903835 4.00983 0.230667 3.40567 0.436917 2.87442C0.648717 2.3258 0.934834 1.86122 1.39803 1.39803C1.86122 0.934834 2.3265 0.649417 2.87442 0.436917C3.40567 0.230667 4.00983 0.0910835 4.89733 0.0494168C5.11955 0.0395168 5.30388 0.0314417 5.49076 0.0249L5.65249 0.0196584C6.06312 0.00746674 6.53843 0.00190848 7.47627 0.00010848L9.18927 0ZM8.33277 4.16608C6.03033 4.16608 4.16608 6.03236 4.16608 8.33277C4.16608 10.6352 6.03236 12.4994 8.33277 12.4994C10.6352 12.4994 12.4994 10.6331 12.4994 8.33277C12.4994 6.03033 10.6331 4.16608 8.33277 4.16608ZM8.33277 5.83275C9.71352 5.83275 10.8328 6.9516 10.8328 8.33277C10.8328 9.71352 9.71385 10.8328 8.33277 10.8328C6.95202 10.8328 5.83275 9.71385 5.83275 8.33277C5.83275 6.95202 6.9516 5.83275 8.33277 5.83275ZM12.7078 2.91608C12.1333 2.91608 11.6661 3.38267 11.6661 3.95704C11.6661 4.53141 12.1327 4.99872 12.7078 4.99872C13.2821 4.99872 13.7494 4.53213 13.7494 3.95704C13.7494 3.38267 13.2813 2.91536 12.7078 2.91608Z" fill="#4338CA"/>
</svg>
