<svg width="15" height="15" viewBox="0 0 15 15" fill="none" xmlns="http://www.w3.org/2000/svg">
<path d="M12.7794 12.7825H10.5581V9.30183C10.5581 8.47183 10.5413 7.40375 9.4006 7.40375C8.24252 7.40375 8.0656 8.30692 8.0656 9.24058V12.7825H5.84435V5.625H7.9781V6.60058H8.00685C8.30502 6.03808 9.03002 5.44437 10.1131 5.44437C12.3638 5.44437 12.78 6.92567 12.78 8.85375L12.7794 12.7825ZM3.33563 4.64562C2.62063 4.64562 2.04625 4.06687 2.04625 3.355C2.04625 2.64375 2.62125 2.06563 3.33563 2.06563C4.04813 2.06563 4.62563 2.64375 4.62563 3.355C4.62563 4.06687 4.0475 4.64562 3.33563 4.64562ZM4.44938 12.7825H2.22188V5.625H4.44938V12.7825ZM13.8906 0H1.10687C0.495 0 0 0.48375 0 1.08063V13.9194C0 14.5168 0.495 15 1.10687 15H13.8888C14.5 15 15 14.5168 15 13.9194V1.08063C15 0.48375 14.5 0 13.8888 0H13.8906Z" fill="#4338CA"/>
</svg>
