<?xml version="1.0" encoding="UTF-8"?>
<svg version="1.1" xmlns="http://www.w3.org/2000/svg" width="64" height="64">
<path d="M0 0 C0.95390625 -0.0038269 1.9078125 -0.00765381 2.890625 -0.01159668 C4.90105245 -0.01431036 6.91151553 -0.00698737 8.921875 0.00976562 C11.99038787 0.03118291 15.05655952 0.00994534 18.125 -0.015625 C20.08333848 -0.01298163 22.0416755 -0.00785645 24 0 C25.36898437 -0.01214539 25.36898437 -0.01214539 26.765625 -0.02453613 C32.32079872 0.056806 35.69337704 0.68925526 40 4.53125 C44.54282076 9.62345276 44.58891916 14.03098908 44.53125 20.53125 C44.53699036 21.96210937 44.53699036 21.96210937 44.54284668 23.421875 C44.54556036 25.43230245 44.53823737 27.44276553 44.52148438 29.453125 C44.50006709 32.52163787 44.52130466 35.58780952 44.546875 38.65625 C44.54423163 40.61458848 44.53910645 42.5729255 44.53125 44.53125 C44.53934692 45.44390625 44.54744385 46.3565625 44.55578613 47.296875 C44.474444 52.85204872 43.84199474 56.22462704 40 60.53125 C34.90779724 65.07407076 30.50026092 65.12016916 24 65.0625 C22.56914063 65.06824036 22.56914063 65.06824036 21.109375 65.07409668 C19.09894755 65.07681036 17.08848447 65.06948737 15.078125 65.05273438 C12.00961213 65.03131709 8.94344048 65.05255466 5.875 65.078125 C3.91666152 65.07548163 1.9583245 65.07035645 0 65.0625 C-0.91265625 65.07059692 -1.8253125 65.07869385 -2.765625 65.08703613 C-8.32079872 65.005694 -11.69337704 64.37324474 -16 60.53125 C-20.54282076 55.43904724 -20.58891916 51.03151092 -20.53125 44.53125 C-20.5350769 43.57734375 -20.53890381 42.6234375 -20.54284668 41.640625 C-20.54556036 39.63019755 -20.53823737 37.61973447 -20.52148438 35.609375 C-20.50006709 32.54086213 -20.52130466 29.47469048 -20.546875 26.40625 C-20.54423163 24.44791152 -20.53910645 22.4895745 -20.53125 20.53125 C-20.53934692 19.61859375 -20.54744385 18.7059375 -20.55578613 17.765625 C-20.474444 12.21045128 -19.84199474 8.83787296 -16 4.53125 C-10.90779724 -0.01157076 -6.50026092 -0.05766916 0 0 Z " fill="#020202" transform="translate(20,-0.53125)"/>
<path d="M0 0 C1.98 1.65 3.96 3.3 6 5 C2.79239749 8.80635497 -0.40746109 12.54563567 -4 16 C-2.59155282 19.21524305 -0.89655214 21.32183868 1.625 23.75 C2.25664062 24.36359375 2.88828125 24.9771875 3.5390625 25.609375 C4.02117188 26.06828125 4.50328125 26.5271875 5 27 C7.49361571 25.79618552 9.68143083 24.54571278 12 23 C13.65 24.98 15.3 26.96 17 29 C14.03 31.475 14.03 31.475 11 34 C9.68 32.68 8.36 31.36 7 30 C4.50638429 31.20381448 2.31856917 32.45428722 0 34 C-5.28 28.72 -10.56 23.44 -16 18 C-14.31353217 14.62706435 -13.30850283 13.06653006 -10.7421875 10.546875 C-10.11699219 9.928125 -9.49179687 9.309375 -8.84765625 8.671875 C-8.19667969 8.03765625 -7.54570312 7.4034375 -6.875 6.75 C-6.21628906 6.1003125 -5.55757812 5.450625 -4.87890625 4.78125 C-3.25703357 3.18288273 -1.6306719 1.58938103 0 0 Z " fill="#F6F6F6" transform="translate(26,15)"/>
<path d="M0 0 C3.80635497 3.20760251 7.54563567 6.40746109 11 10 C9.95125002 12.62187494 9.35068687 13.79371361 6.875 15.25 C6.25625 15.4975 5.6375 15.745 5 16 C3.35 14.68 1.7 13.36 0 12 C-0.5775 12.680625 -1.155 13.36125 -1.75 14.0625 C-4 16 -4 16 -6.0625 15.9375 C-8.22062052 14.89324813 -9.5040629 13.86992138 -11 12 C-11 11.34 -11 10.68 -11 10 C-9.35546875 8.37890625 -9.35546875 8.37890625 -7.1875 6.5625 C-4.68897282 4.45536324 -2.2757944 2.34758602 0 0 Z " fill="#F5F5F5" transform="translate(43,21)"/>
</svg>
