<?xml version="1.0" encoding="UTF-8"?>
<svg version="1.1" xmlns="http://www.w3.org/2000/svg" width="1024" height="1024">
<path d="M0 0 C337.92 0 675.84 0 1024 0 C1024 337.92 1024 675.84 1024 1024 C686.08 1024 348.16 1024 0 1024 C0 686.08 0 348.16 0 0 Z " fill="#FEFEFE" transform="translate(0,0)"/>
<path d="M0 0 C0.66 0 1.32 0 2 0 C2 0.66 2 1.32 2 2 C2.84924042 2.36077385 2.84924042 2.36077385 3.71563721 2.72883606 C6.47090394 4.26204074 8.32975213 6.09745795 10.54980469 8.33862305 C11.44463562 9.23683273 12.33946655 10.13504242 13.26141357 11.06047058 C14.23159295 12.04419476 15.20174609 13.02794481 16.171875 14.01171875 C17.17781073 15.02393296 18.18426875 16.03562838 19.19122314 17.04682922 C21.84249022 19.71139014 24.48814309 22.38145006 27.13220215 25.05316162 C31.34802757 29.31209007 35.57043279 33.56446494 39.79636383 37.81336403 C41.26098399 39.28808033 42.72206529 40.76623346 44.18280029 42.24479675 C48.65433734 46.7485158 53.17151144 51.08814447 57.98922729 55.21754456 C62.09849967 58.86022127 65.92302144 62.80218617 69.79296875 66.6953125 C70.70202469 67.60578339 71.61108063 68.51625427 72.54768372 69.45431519 C74.94318302 71.85359459 77.335666 74.255859 79.72747803 76.65881348 C82.15698845 79.09858186 84.58935065 81.53550345 87.02148438 83.97265625 C90.58381446 87.54290163 94.14462508 91.11465444 97.70385742 94.68798828 C98.4584021 95.44522186 99.21294678 96.20245544 99.99035645 96.9826355 C101.18688137 98.18375741 102.38293885 99.38534573 103.57800293 100.58792114 C105.76467226 102.78455776 107.97512353 104.94236511 110.2578125 107.0390625 C123.2594 119.08143241 135.73581712 131.63802799 148.22363281 144.20776367 C149.13983398 145.12920166 150.05603516 146.05063965 151 147 C151.87873779 147.88397461 152.75747559 148.76794922 153.6628418 149.67871094 C155.47778273 151.48132855 157.30482087 153.24639517 159.19140625 154.97265625 C159.74376953 155.47990234 160.29613281 155.98714844 160.86523438 156.50976562 C161.42533203 157.02216797 161.98542969 157.53457031 162.5625 158.0625 C170.90145137 165.69621434 170.90145137 165.69621434 173 168 C173 168.66 173 169.32 173 170 C173.56912109 170.23952393 174.13824219 170.47904785 174.72460938 170.72583008 C177.47040619 172.26341737 179.24317961 174.10159205 181.40625 176.38671875 C182.64568359 177.6696582 182.64568359 177.6696582 183.91015625 178.97851562 C185.64258124 180.79063739 187.36912197 182.60840224 189.08984375 184.43164062 C189.91613281 185.28306641 190.74242187 186.13449219 191.59375 187.01171875 C192.34333984 187.80022217 193.09292969 188.58872559 193.86523438 189.40112305 C195.84160688 191.24529876 195.84160688 191.24529876 198.13085938 190.84692383 C202.23210698 188.98861297 205.03204551 186.02054922 207.875 182.625 C211.19504588 178.73830944 214.81793316 175.33263273 218.58203125 171.890625 C224.61740535 166.31430912 230.48145864 160.59004435 236.26953125 154.7578125 C237.05110596 153.97068878 237.83268066 153.18356506 238.63793945 152.37258911 C241.86007499 149.12297435 245.07808126 145.86932476 248.29223633 142.61181641 C250.67622659 140.19787 253.06620614 137.78998678 255.45703125 135.3828125 C256.18710892 134.63927521 256.91718658 133.89573792 257.66938782 133.12966919 C258.34156845 132.4541098 259.01374908 131.77855042 259.70629883 131.08251953 C260.29615067 130.48521027 260.8860025 129.887901 261.49372864 129.27249146 C263 128 263 128 265 128 C265.33 127.01 265.66 126.02 266 125 C267.6396721 123.63360658 269.31110128 122.3050581 271 121 C272.68236475 119.34918069 274.34677902 117.68000475 276 116 C276.90387451 115.08565186 277.80774902 114.17130371 278.73901367 113.22924805 C279.21267868 112.74912766 279.68634369 112.26900726 280.17436218 111.77433777 C282.28629438 109.63552231 284.4036809 107.50213912 286.52124023 105.36889648 C287.63921844 104.24076229 288.75540963 103.11085457 289.86987305 101.97924805 C291.48542825 100.33956243 293.10724576 98.70630931 294.73046875 97.07421875 C295.22943161 96.56493332 295.72839447 96.05564789 296.24247742 95.53092957 C297.45760862 94.31540293 298.72464361 93.15217834 300 92 C300.66 92 301.32 92 302 92 C302.26554687 91.40832031 302.53109375 90.81664062 302.8046875 90.20703125 C304.03337579 87.93837477 305.28387757 86.48152395 307.125 84.6875 C307.93324219 83.88892578 307.93324219 83.88892578 308.7578125 83.07421875 C310.01367145 81.91243983 311.28027163 80.76120486 312.58251953 79.65167236 C318.16098466 74.89210291 323.33786455 69.76778089 328.4889183 64.55568123 C330.02470857 63.00226188 331.56422082 61.45261776 333.10476685 59.90391541 C337.47784303 55.50657024 341.844969 51.10334854 346.20800781 46.69604492 C348.89086273 43.98648727 351.57850573 41.28175722 354.26919937 38.57998466 C355.29099705 37.55197145 356.31089231 36.52206375 357.32885361 35.49025154 C358.7431891 34.05680724 360.16415384 32.62991282 361.58544922 31.20336914 C362.39182831 30.38953262 363.1982074 29.57569611 364.02902222 28.73719788 C366 27 366 27 368 27 C368.3403125 26.1646875 368.3403125 26.1646875 368.6875 25.3125 C370.37550036 22.33840412 372.46676517 20.27991135 375 18 C375.66 18 376.32 18 377 18 C377.26296875 17.39800781 377.5259375 16.79601562 377.796875 16.17578125 C379.06579466 13.8810142 380.20130916 12.78861649 382.25 11.1875 C385.51823283 8.51969407 388.12713958 5.62537401 390.73828125 2.3203125 C391.15464844 1.88460938 391.57101562 1.44890625 392 1 C392.66 1 393.32 1 394 1 C394.67482422 2.36705078 394.67482422 2.36705078 395.36328125 3.76171875 C399.3122772 11.72664278 403.35793503 19.63366587 407.5 27.5 C411.4485356 35.00316518 415.32225315 42.53534075 419.078125 50.13671875 C420.43617919 52.88317865 421.82625083 55.61091005 423.234375 58.33203125 C423.60280518 59.05028076 423.97123535 59.76853027 424.35083008 60.50854492 C425.05257795 61.87530571 425.76033658 63.23900465 426.4753418 64.59887695 C430.20516812 71.90743599 430.20516812 71.90743599 430 76 C428.0755395 78.64608327 425.67758615 80.64674611 423.1875 82.75 C421.79291252 83.98414388 420.39968653 85.21982794 419.0078125 86.45703125 C418.32106445 87.05854004 417.63431641 87.66004883 416.92675781 88.27978516 C414.36160107 90.56996438 411.96570053 92.97779789 409.5625 95.4375 C406.18962739 98.85482563 402.71024973 102.03801233 399.0625 105.15625 C396.61075311 107.34796313 394.31114427 109.66067104 392 112 C388.47893677 115.56400302 384.86813992 118.90304168 381.0625 122.15625 C377.7899457 125.08171521 374.74873122 128.2310328 371.6875 131.375 C369.5960893 133.41777324 367.48880373 135.3223141 365.2734375 137.22265625 C359.59455102 142.14266851 354.42344337 147.56517773 349.18359375 152.94335938 C348.41402344 153.72388672 347.64445312 154.50441406 346.8515625 155.30859375 C346.15885254 156.01814209 345.46614258 156.72769043 344.75244141 157.45874023 C343 159 343 159 341 159 C340.64808594 159.85851562 340.64808594 159.85851562 340.2890625 160.734375 C338.70109563 163.52534707 336.80711778 165.15672216 334.375 167.25 C331.10022714 170.12013139 327.92377853 173.01572983 324.875 176.125 C321.71997831 179.33070477 318.41846275 182.28179082 315.0078125 185.2109375 C312.17309192 187.73681693 309.54176088 190.44780059 306.87890625 193.15234375 C305.24467292 194.75939648 303.58693422 196.23981582 301.8125 197.6875 C299.01316754 199.98917336 296.54619739 202.42125179 294 205 C280.03455693 219.12460568 280.03455693 219.12460568 273.921875 224.296875 C270.68693788 227.16360789 267.70169991 230.27933522 264.6875 233.375 C262.56867421 235.44455078 260.42862646 237.38215475 258.1875 239.3125 C253.91785874 243.0133898 249.95484112 246.96791589 246 251 C241.48024688 255.60802955 236.89067773 260.01017797 232 264.22265625 C228.51028722 267.32386585 225.2678338 270.66834132 222 274 C217.38625709 278.70385507 212.71183257 283.23006234 207.70068359 287.51196289 C206.28111972 288.75403034 204.94133885 290.08652066 203.625 291.4375 C202 293 202 293 200 293 C199.67 294.65 199.34 296.3 199 298 C199.57363281 298.2371875 200.14726562 298.474375 200.73828125 298.71875 C203.49322096 300.27940669 205.11181075 302.11049981 207.1875 304.5 C207.96480469 305.38816406 208.74210937 306.27632812 209.54296875 307.19140625 C210.35378906 308.11824219 211.16460937 309.04507812 212 310 C214.41289991 312.62721568 216.82839866 315.25189647 219.25 317.87109375 C221 320 221 320 222 323 C222.58910156 323.29390625 223.17820312 323.5878125 223.78515625 323.890625 C226.6947679 325.34799662 228.30076343 327.30589925 230.4375 329.75 C231.21867187 330.63945313 231.99984375 331.52890625 232.8046875 332.4453125 C235.2346581 335.27307189 237.6431894 338.11100636 240 341 C244.00494322 340.45893029 245.81376643 338.53475235 248.58984375 335.703125 C249.45673828 334.8265625 250.32363281 333.95 251.21679688 333.046875 C252.56354492 331.66242188 252.56354492 331.66242188 253.9375 330.25 C254.83146484 329.3425 255.72542969 328.435 256.64648438 327.5 C258.32108276 325.79929429 259.99257687 324.09552225 261.65991211 322.38769531 C264.09001358 319.90815516 266.54165744 317.45151875 269 315 C269.8971875 314.1028125 270.794375 313.205625 271.71875 312.28125 C281.47916667 302.52083333 291.23958333 292.76041667 301 283 C301.42784444 282.46488391 301.85568888 281.92976782 302.2964983 281.37843609 C304.73125911 279.40828122 306.49241218 279.61538414 309.59977722 279.60127258 C311.3476931 279.58246536 311.3476931 279.58246536 313.13092041 279.5632782 C315.05034454 279.56543083 315.05034454 279.56543083 317.00854492 279.56762695 C318.36858513 279.55861161 319.72861719 279.54828495 321.08863831 279.53674316 C324.78257906 279.50911988 328.47636588 279.4998815 332.17039657 279.49388909 C336.03018934 279.48451921 339.8898665 279.45831701 343.74958801 279.43388367 C351.05932088 279.3901767 358.36903136 279.36165558 365.67885524 279.33856028 C374.00047732 279.31153105 382.32198333 279.26761819 390.64352262 279.22227156 C407.76228871 279.12936521 424.88107985 279.05771198 442 279 C440.42043528 275.67262302 438.83925778 272.3460148 437.2578125 269.01953125 C436.81542236 268.08757935 436.37303223 267.15562744 435.91723633 266.19543457 C432.05451307 258.07376575 428.05598997 250.02641912 424 242 C422.64311731 239.31385899 421.28853322 236.62658822 419.9375 233.9375 C419.60331055 233.27234375 419.26912109 232.6071875 418.92480469 231.921875 C416.73962296 227.54723944 414.65997875 223.13362205 412.625 218.6875 C409.99490761 212.9467664 407.10938415 207.37640336 404.125 201.8125 C400.1144681 194.32856783 396.50614798 186.7278288 393.13134766 178.93676758 C391.008521 174.07225119 388.65360134 169.54108242 385.84887695 165.02978516 C384.805437 162.53477229 384.99654903 161.47825427 386 159 C387.890625 157.03515625 387.890625 157.03515625 390.25 155.0625 C393.66847074 152.17744835 396.86280651 149.1901216 400 146 C419.5 126.5 419.5 126.5 421.3203125 124.68359375 C422.68140407 123.31933685 424.03013533 121.94275584 425.375 120.5625 C428.43868006 117.5717647 431.63598945 114.75923851 434.8515625 111.93359375 C436.59960893 110.36035196 438.2509478 108.76037275 439.875 107.0625 C442 105 442 105 445 104 C450.34501799 113.7660302 455.28026615 123.6552025 459.95703125 133.75683594 C461.7623898 137.63970914 463.60126655 141.50665763 465.4375 145.375 C466.19667846 146.97653222 466.95579279 148.57809485 467.71484375 150.1796875 C468.28114502 151.37416504 468.28114502 151.37416504 468.85888672 152.59277344 C471.11391591 157.34985256 473.3671019 162.10780506 475.62036133 166.86572266 C477.51904104 170.87464335 479.41872556 174.88308241 481.3203125 178.890625 C482.08861669 180.51038108 482.8568462 182.13017259 483.625 183.75 C484.00503174 184.55131348 484.38506348 185.35262695 484.77661133 186.17822266 C486.9347854 190.7342119 489.06983632 195.29999726 491.1875 199.875 C493.51228903 204.87846867 495.89098973 209.85337586 498.30078125 214.81640625 C498.59928482 215.43135452 498.89778839 216.0463028 499.20533752 216.67988586 C499.50906784 217.30557968 499.81279816 217.9312735 500.12573242 218.57592773 C500.75052957 219.86309845 501.37528517 221.15028933 502 222.4375 C502.46498398 223.39548996 502.46498398 223.39548996 502.93936157 224.37283325 C506.37801641 231.46531896 509.78216903 238.56044113 512.875 245.8125 C515.31265334 251.52062092 517.98572217 257.04300327 520.8034668 262.56811523 C524.21888235 269.31940365 527.32311392 276.2058861 530.41137695 283.11181641 C532.73017733 288.28040397 535.16585077 293.36338023 537.72094727 298.41894531 C540.0518708 303.12261464 542.20410061 307.90842006 544.375 312.6875 C549.85349213 324.71947908 555.4388293 336.69900006 561.078125 348.65625 C561.4205423 349.38233963 561.76295959 350.10842926 562.11575317 350.85652161 C563.51724238 353.82784726 564.9188573 356.79911144 566.32226562 359.76953125 C567.36700426 361.98124486 568.41018552 364.19368754 569.453125 366.40625 C569.76566223 367.06677368 570.07819946 367.72729736 570.40020752 368.40783691 C572.35985917 372.5691282 574.20098427 376.76679467 576 381 C577.32627646 383.85429639 578.66488197 386.70222859 580.01171875 389.546875 C581 392 581 392 581 395 C570.41262464 395.23186336 559.82585443 395.40946132 549.23645592 395.51812172 C544.31899632 395.57027957 539.40327524 395.64099437 534.48681641 395.75439453 C529.74043388 395.86318462 524.99572115 395.92286678 520.24818802 395.94877243 C518.43867316 395.9672279 516.62924825 396.00327184 514.82044601 396.05730057 C500.65629826 396.46349187 500.65629826 396.46349187 496.58917236 392.86981201 C494.98301896 390.2661965 493.94128841 387.90374326 493 385 C492.37801253 383.45711546 491.75348613 381.91524878 491.125 380.375 C490.815625 379.55515625 490.50625 378.7353125 490.1875 377.890625 C487.87031605 372.25011144 485.00073777 366.86211995 482.23291016 361.43231201 C480.7652828 358.5369448 479.31359581 355.63381322 477.86279297 352.72998047 C477.32572723 351.65521454 476.7886615 350.58044861 476.23532104 349.47311401 C475.8276651 348.65698639 475.42000916 347.84085876 475 347 C445.75723452 345.89604191 416.51546619 345.05108539 387.25612003 344.54886419 C383.77292625 344.48885713 380.28977338 344.42672709 376.80664062 344.36328125 C375.76684935 344.3443949 375.76684935 344.3443949 374.70605218 344.32512701 C364.96821319 344.14385103 355.2397296 343.84808311 345.50799561 343.46074903 C280.20612435 336.61374168 280.20612435 336.61374168 222.484375 357.79296875 C215.54848163 364.3134581 209.88021787 371.80589251 204.19141102 379.40320206 C202.99069782 381.00628892 201.78638978 382.60668122 200.58203125 384.20703125 C199.81734024 385.2266394 199.05264923 386.24624756 198.26478577 387.29675293 C191.7506996 395.36785666 185.6719849 398.08293485 175.47190857 399.35017395 C164.98137165 400.14067083 154.5664962 399.39485753 144.12927246 398.29589844 C138.78625621 397.79067233 133.43065417 397.58286538 128.0703125 397.34375 C117.68299623 396.83942261 107.34758974 396.02977744 97 395 C98.56377499 391.67697814 100.21353151 389.43815993 103 387 C103.66 387 104.32 387 105 387 C105.33 386.01 105.66 385.02 106 384 C107.671875 382.38671875 107.671875 382.38671875 109.75 380.6875 C112.29166604 378.53789947 114.35473559 376.57431729 116.5 374 C119.08871008 370.89354791 121.86440296 368.47894495 124.94140625 365.87890625 C127.74377743 363.32114432 130.09216721 360.46419925 132.45703125 357.50390625 C134 356 134 356 137 356 C137.21398437 355.45988281 137.42796875 354.91976563 137.6484375 354.36328125 C139.48643011 351.14945023 141.99702012 348.7512646 144.625 346.1875 C145.16406982 345.65415039 145.70313965 345.12080078 146.25854492 344.57128906 C149.78633805 341.10719731 153.438886 337.84160612 157.20703125 334.640625 C159.75460722 332.30950974 161.91243112 329.6944632 164.13989258 327.06176758 C165.83887735 325.17859047 167.55758103 323.58884625 169.5 321.96484375 C175.11539814 317.11929858 180.28185958 311.82574177 185.5 306.5625 C186.52320139 305.5342702 187.54663733 304.50627374 188.5703125 303.47851562 C191.04957999 300.98835662 193.52567538 298.49507167 196 296 C194.60759107 293.06130407 193.48916289 291.33246497 190.875 289.375 C189.92625 288.59125 188.9775 287.8075 188 287 C188 286.34 188 285.68 188 285 C187.1790686 284.66802612 187.1790686 284.66802612 186.34155273 284.3293457 C183.26768395 282.58424972 180.98694375 280.23405048 178.53515625 277.73046875 C177.76237587 276.95344353 177.76237587 276.95344353 176.97398376 276.16072083 C175.3320505 274.50763285 173.69719981 272.84773823 172.0625 271.1875 C170.96726191 270.08222129 169.87156329 268.97739872 168.77539062 267.87304688 C166.7498107 265.83118615 164.72701058 263.78665531 162.70727539 261.73901367 C158.2728884 257.2526409 153.79406746 252.86611788 149.125 248.625 C140.64605653 240.86622321 132.59843818 232.67816277 124.53125 224.49609375 C121.25083052 221.26123565 117.8789343 218.13136882 114.5 215 C110.25803524 211.06883266 106.06265823 207.1179743 102 203 C99.06573922 200.03844034 96.12693351 197.08142446 93.1875 194.125 C92.41857422 193.34769531 91.64964844 192.57039062 90.85742188 191.76953125 C86.602215 187.49636991 82.27936158 183.39511691 77.67114258 179.50341797 C75.1646159 177.24845941 73.15602234 174.5872268 71 172 C69.16602779 170.33432171 67.27899282 168.74038989 65.390625 167.13671875 C61.81473449 163.94062053 58.47490596 160.51762946 55.12475586 157.08740234 C52.83936047 154.76338583 50.72397972 152.81598648 48 151 C45.76181226 153.23818774 45.61880626 154.03670868 45.0546875 157.05078125 C44.06341048 161.88639674 42.65775378 166.49973478 41.125 171.1875 C38.95030878 177.94859722 36.90931864 184.72814559 34.98828125 191.56640625 C33.7300551 195.93787179 32.36712627 200.27377752 30.99804688 204.61132812 C29.26293953 210.12253533 27.59169477 215.65151004 25.9375 221.1875 C23.21754259 230.28337265 20.47400543 239.37005406 17.59765625 248.41796875 C15.15880915 256.09200857 12.74605584 263.7670207 10.5 271.5 C8.03351991 279.99188125 5.36324572 288.41490638 2.68457031 296.84179688 C0.54976063 303.57208133 -1.56913014 310.2981856 -3.375 317.125 C-4.66418572 321.93467199 -6.1366188 326.67118731 -7.6484375 331.4140625 C-10.9084353 341.69024656 -14.12165148 351.98069278 -17.32421875 362.27490234 C-18.26213966 365.2890121 -19.20136771 368.3027127 -20.140625 371.31640625 C-20.7448707 373.2577879 -21.34904024 375.19919326 -21.953125 377.140625 C-22.23021301 378.02921204 -22.50730103 378.91779907 -22.79278564 379.83331299 C-23.95169721 383.56229243 -25.09000335 387.28910598 -26.12792969 391.05371094 C-27 394 -27 394 -28 395 C-30.52541002 395.09504251 -33.02337126 395.12557158 -35.54907227 395.11352539 C-36.73435013 395.11374443 -36.73435013 395.11374443 -37.943573 395.1139679 C-40.56787822 395.11326857 -43.19211336 395.10547527 -45.81640625 395.09765625 C-47.63101665 395.09579214 -49.44562756 395.0943682 -51.26023865 395.09336853 C-56.0459023 395.08954279 -60.8315358 395.07971204 -65.6171875 395.06866455 C-70.49674064 395.05845163 -75.37629864 395.05387117 -80.25585938 395.04882812 C-89.83725286 395.03808982 -99.41862393 395.02101273 -109 395 C-108.8694068 393.43307117 -108.73116998 391.86677852 -108.58984375 390.30078125 C-108.5137085 389.42848877 -108.43757324 388.55619629 -108.35913086 387.6574707 C-107.6974303 382.76106653 -105.96516692 378.23171006 -104.01171875 373.71484375 C-102.75188303 370.3342035 -102.01272706 366.8916118 -101.25 363.375 C-99.80328106 356.94957728 -98.03973331 350.69902176 -96 344.4375 C-93.91731045 338.04039128 -92.0993586 331.67479846 -90.5390625 325.12866211 C-89.22220033 319.68918483 -87.63886379 314.35040824 -86 309 C-83.93590048 302.25346439 -82.05943764 295.50043391 -80.39404297 288.64526367 C-78.94934622 282.7148358 -77.28979156 276.86003735 -75.58154297 271.00097656 C-69.8215317 251.18189496 -64.17384864 231.32198283 -58.90234375 211.3671875 C-55.19779518 197.54328765 -55.19779518 197.54328765 -52.97265625 190.9609375 C-51.71080908 187.11965173 -50.80766122 183.22558265 -49.87890625 179.29296875 C-49.18430121 176.69051519 -48.40961715 174.19062006 -47.54296875 171.64453125 C-46.07264503 167.30614625 -44.87636545 162.93820154 -43.75 158.5 C-39.76270756 143.08994832 -35.54371592 127.73295385 -30.7578125 112.55078125 C-30.07978907 110.26856837 -29.53823405 108.01859685 -29.0625 105.6875 C-28.2225836 101.64129402 -27.01089111 97.74314246 -25.75 93.8125 C-23.35770851 86.34095541 -21.27461642 78.80361566 -19.23803711 71.22827148 C-17.48294615 64.71752315 -15.62047023 58.24734302 -13.68798828 51.78735352 C-12.22470087 46.86055441 -10.93448954 41.91234452 -9.7734375 36.90625 C-9.13121297 34.49304266 -8.39222297 32.18946889 -7.578125 29.83203125 C-5.83734528 24.69110701 -4.59049551 19.47340486 -3.375 14.1875 C-2.94540002 12.34763581 -2.5157158 10.50779129 -2.0859375 8.66796875 C-1.9007959 7.86641357 -1.7156543 7.0648584 -1.52490234 6.23901367 C-1.03610848 4.15402368 -0.52517882 2.07608825 0 0 Z " fill="#010101" transform="translate(280,305)"/>
<path d="M0 0 C0 3 0 3 0 3 Z M-3 3 C-2.34 3.33 -1.68 3.66 -1 4 C-1.804375 4.763125 -2.60875 5.52625 -3.4375 6.3125 C-6.16799024 8.79430898 -6.16799024 8.79430898 -7 12 C-8.65444263 13.02009675 -10.32328852 14.01693521 -12 15 C-13.64760066 16.51663081 -15.25248462 18.08091699 -16.8125 19.6875 C-17.99779297 20.89986328 -17.99779297 20.89986328 -19.20703125 22.13671875 C-20.09455078 23.05904297 -20.09455078 23.05904297 -21 24 C-21.66 23.67 -22.32 23.34 -23 23 C-16.4 16.4 -9.8 9.8 -3 3 Z " fill="#262626" transform="translate(649,329)"/>
<path d="M0 0 C0.66 0.33 1.32 0.66 2 1 C-1.63 4.63 -5.26 8.26 -9 12 C-9 9 -9 9 -7.03125 6.73828125 C-5.77828125 5.53751953 -5.77828125 5.53751953 -4.5 4.3125 C-3.6646875 3.50425781 -2.829375 2.69601562 -1.96875 1.86328125 C-1.3190625 1.24839844 -0.669375 0.63351562 0 0 Z M-14 14 C-13.34 14.33 -12.68 14.66 -12 15 C-13.485 17.475 -13.485 17.475 -15 20 C-16.32 19.34 -17.64 18.68 -19 18 C-17.35 16.68 -15.7 15.36 -14 14 Z " fill="#2A2C2B" transform="translate(496,479)"/>
<path d="M0 0 C0.66 0 1.32 0 2 0 C3.60080151 4.00200378 2.29279692 7.04556236 1 11 C0.01 11 -0.98 11 -2 11 C-2.05399736 9.54207116 -2.09279177 8.08357288 -2.125 6.625 C-2.15980469 5.40683594 -2.15980469 5.40683594 -2.1953125 4.1640625 C-2 2 -2 2 0 0 Z " fill="#EBECEA" transform="translate(205,563)"/>
<path d="M0 0 C1.625 1 1.625 1 3 3 C2.65009645 5.8158905 1.84980278 8.2716858 1 11 C0.01 11 -0.98 11 -2 11 C-2.25 3.375 -2.25 3.375 0 0 Z " fill="#F0F1E9" transform="translate(245,420)"/>
<path d="M0 0 C0.99 0.99 1.98 1.98 3 3 C0.62475751 5.75028078 -1.6159924 6.76194844 -5 8 C-6.33861621 8.65599456 -7.67292296 9.32096483 -9 10 C-8.06409496 8.8944811 -7.12620142 7.79064547 -6.1875 6.6875 C-5.66542969 6.07261719 -5.14335937 5.45773437 -4.60546875 4.82421875 C-3.12827531 3.14575321 -1.59960869 1.56117966 0 0 Z " fill="#DCE2DB" transform="translate(515,655)"/>
<path d="M0 0 C0.66 0.33 1.32 0.66 2 1 C-1.86757281 5.95532767 -6.18876004 9.96476648 -11 14 C-11.66 13.67 -12.32 13.34 -13 13 C-9.57338216 8.28840047 -5.40481284 4.74963472 -1 1 C-0.67 0.67 -0.34 0.34 0 0 Z " fill="#252521" transform="translate(703,428)"/>
<path d="M0 0 C0.66 0.33 1.32 0.66 2 1 C1.505 1.61875 1.01 2.2375 0.5 2.875 C-1.19222773 4.83880904 -1.19222773 4.83880904 -1 7 C-1.928125 7.433125 -2.85625 7.86625 -3.8125 8.3125 C-6.47184073 9.72038627 -8.08105905 10.76123556 -10 13 C-10.66 12.67 -11.32 12.34 -12 12 C-10.37660195 10.29115995 -8.70680947 8.62553283 -7 7 C-6.34 7 -5.68 7 -5 7 C-4.731875 6.401875 -4.46375 5.80375 -4.1875 5.1875 C-3.01506533 3.02775192 -1.80630718 1.64209744 0 0 Z " fill="#2C2D2D" transform="translate(662,316)"/>
<path d="M0 0 C2 0 2 0 3.7265625 1.64453125 C4.35304688 2.35996094 4.97953125 3.07539063 5.625 3.8125 C6.25664062 4.52019531 6.88828125 5.22789062 7.5390625 5.95703125 C9 8 9 8 9 11 C8.67 10.34 8.34 9.68 8 9 C7.13375 8.62875 7.13375 8.62875 6.25 8.25 C2.99368694 6.44093719 1.28964624 3.92565908 -1 1 C-0.67 0.67 -0.34 0.34 0 0 Z " fill="#E2E3D8" transform="translate(376,396)"/>
<path d="M0 0 C0.33 1.32 0.66 2.64 1 4 C-1.64 5.98 -4.28 7.96 -7 10 C-7.66 9.67 -8.32 9.34 -9 9 C-6.03 6.03 -3.06 3.06 0 0 Z " fill="#D3D5CA" transform="translate(499,671)"/>
<path d="M0 0 C3 3.625 3 3.625 3 7 C0.5 8.6875 0.5 8.6875 -2 10 C-1.46274105 6.62294375 -0.88935377 3.303314 0 0 Z " fill="#E1E3DB" transform="translate(266,653)"/>
<path d="M0 0 C0.99 0 1.98 0 3 0 C3 0.66 3 1.32 3 2 C2.34 2 1.68 2 1 2 C1.0825 2.928125 1.165 3.85625 1.25 4.8125 C1.1675 5.864375 1.085 6.91625 1 8 C-0.32 8.99 -1.64 9.98 -3 11 C-2.01 7.37 -1.02 3.74 0 0 Z " fill="#DCDFD6" transform="translate(290,576)"/>
<path d="M0 0 C0.66 0.66 1.32 1.32 2 2 C1.2575 2.5775 0.515 3.155 -0.25 3.75 C-2.66087643 5.72253526 -4.84042701 7.76044282 -7 10 C-7.66 9.67 -8.32 9.34 -9 9 C-6.03 6.03 -3.06 3.06 0 0 Z " fill="#131410" transform="translate(689,442)"/>
<path d="M0 0 C1.52299523 2.93720508 2.80100302 5.9168649 4 9 C1.5625 8.1875 1.5625 8.1875 -1 7 C-2 4 -2 4 -1.0625 1.8125 C-0.5365625 0.9153125 -0.5365625 0.9153125 0 0 Z " fill="#DFE1DD" transform="translate(772,686)"/>
<path d="M0 0 C0.66 0.33 1.32 0.66 2 1 C1.2884375 1.61875 1.2884375 1.61875 0.5625 2.25 C-1.16266518 4.182185 -1.56584875 5.48192275 -2 8 C-3.32 7.67 -4.64 7.34 -6 7 C-4.02 4.69 -2.04 2.38 0 0 Z " fill="#DCE0D9" transform="translate(558,524)"/>
<path d="M0 0 C2.62187494 1.04874998 3.79371361 1.64931313 5.25 4.125 C5.4975 4.74375 5.745 5.3625 6 6 C5.01 6 4.02 6 3 6 C0.8125 3.5 0.8125 3.5 -1 1 C-0.67 0.67 -0.34 0.34 0 0 Z " fill="#E1E3DC" transform="translate(426,445)"/>
<path d="M0 0 C0.66 0.33 1.32 0.66 2 1 C2 2.65 2 4.3 2 6 C0.02 6.99 0.02 6.99 -2 8 C-1.34 5.36 -0.68 2.72 0 0 Z " fill="#D7DCD2" transform="translate(298,549)"/>
<path d="M0 0 C1.32 0.33 2.64 0.66 4 1 C4.33 2.98 4.66 4.96 5 7 C4.01 7.495 4.01 7.495 3 8 C2.01 5.36 1.02 2.72 0 0 Z " fill="#EAEBE3" transform="translate(768,498)"/>
<path d="M0 0 C2.38564077 0.57584432 4.66682784 1.22227595 7 2 C6.67 3.32 6.34 4.64 6 6 C3.97945196 4.35830472 1.97956942 2.69088222 0 1 C0 0.67 0 0.34 0 0 Z " fill="#DDDED0" transform="translate(460,480)"/>
<path d="M0 0 C0.99 0 1.98 0 3 0 C3 0.66 3 1.32 3 2 C3.99 2.33 4.98 2.66 6 3 C5.34 4.32 4.68 5.64 4 7 C2.10786631 4.61426621 0.97608217 2.92824652 0 0 Z " fill="#E8E9E1" transform="translate(735,430)"/>
<path d="M0 0 C0.66 0.33 1.32 0.66 2 1 C2 1.66 2 2.32 2 3 C0.824375 3.680625 0.824375 3.680625 -0.375 4.375 C-3.1235949 6.07651113 -3.87921032 7.04519084 -5 10 C-5.3125 7.8125 -5.3125 7.8125 -5 5 C-2.5 2.1875 -2.5 2.1875 0 0 Z " fill="#EEF0E8" transform="translate(505,665)"/>
<path d="M0 0 C0 3 0 3 -1 6 C-1.66 6 -2.32 6 -3 6 C-3 6.66 -3 7.32 -3 8 C-3.66 8 -4.32 8 -5 8 C-4.45773019 4.20411134 -2.79872437 2.52788007 0 0 Z " fill="#F0F3EC" transform="translate(549,533)"/>
<path d="M0 0 C2.475 0.495 2.475 0.495 5 1 C5.33 2.65 5.66 4.3 6 6 C3.97945196 4.35830472 1.97956942 2.69088222 0 1 C0 0.67 0 0.34 0 0 Z " fill="#EBEBDB" transform="translate(446,466)"/>
<path d="M0 0 C-2.31 1.65 -4.62 3.3 -7 5 C-6.625 2.5625 -6.625 2.5625 -6 0 C-4 -1 -4 -1 0 0 Z " fill="#DADDD6" transform="translate(385,692)"/>
<path d="M0 0 C0.33 0.99 0.66 1.98 1 3 C1.66 3 2.32 3 3 3 C3 3.99 3 4.98 3 6 C-0.16115776 4.63016497 -0.9927092 4.0109362 -3 1 C-2.01 0.67 -1.02 0.34 0 0 Z " fill="#E9EADE" transform="translate(514,635)"/>
<path d="M0 0 C1.65 0.99 3.3 1.98 5 3 C4.67 4.32 4.34 5.64 4 7 C2.35 5.02 0.7 3.04 -1 1 C-0.67 0.67 -0.34 0.34 0 0 Z " fill="#D7D8CE" transform="translate(496,618)"/>
<path d="M0 0 C1.98 0.495 1.98 0.495 4 1 C3.67 1.66 3.34 2.32 3 3 C3.66 3 4.32 3 5 3 C4.67 3.66 4.34 4.32 4 5 C2.68 4.34 1.36 3.68 0 3 C0 2.01 0 1.02 0 0 Z " fill="#111410" transform="translate(368,491)"/>
<path d="M0 0 C3.26954202 0.56371414 4.82575883 1.49962266 7 4 C6.34 4.66 5.68 5.32 5 6 C3.35 4.02 1.7 2.04 0 0 Z " fill="#DBDCD1" transform="translate(413,434)"/>
<path d="M0 0 C0.99 0.33 1.98 0.66 3 1 C1.35 2.98 -0.3 4.96 -2 7 C-2.66 6.34 -3.32 5.68 -4 5 C-2.68 3.35 -1.36 1.7 0 0 Z " fill="#DEDED7" transform="translate(708,420)"/>
<path d="M0 0 C0 1.32 0 2.64 0 4 C-1.98 4 -3.96 4 -6 4 C-2.25 0 -2.25 0 0 0 Z " fill="#DEE0D5" transform="translate(708,384)"/>
</svg>
